<svg xmlns="http://www.w3.org/2000/svg" version="1.1" xmlns:xlink="http://www.w3.org/1999/xlink" width="512" height="512" x="0" y="0" viewBox="0 0 496 496" style="enable-background:new 0 0 512 512" xml:space="preserve" class=""><g><path d="M488 176a8 8 0 0 0 8-8V8c0-4.414-3.582-8-8-8h-94.055c-8.547 0-16.586 3.328-22.632 9.375L368 12.688l-3.313-3.313C358.649 3.328 350.61 0 342.055 0H248c-4.414 0-8 3.586-8 8v84.672A111.745 111.745 0 0 0 208 88h-40c-61.152 0-111.016 49.266-111.984 110.191L.754 316.617a7.977 7.977 0 0 0 .504 7.68A7.966 7.966 0 0 0 8 328h48v96c0 4.418 3.586 8 8 8h80v64h16v-72c0-4.414-3.582-8-8-8H72v-96c0-4.414-3.582-8-8-8H20.559L71.25 203.383A7.96 7.96 0 0 0 72 200c0-52.938 43.063-96 96-96h40c11.031 0 21.754 1.953 32 5.586v35.223a40.008 40.008 0 0 0-8-.809c-3.762 0-7.32.688-10.77 1.664C215.441 130.688 200.984 120 184 120c-19.344 0-35.512 13.809-39.2 32.082-.273-.012-.527-.082-.8-.082-15.184 0-27.871 10.656-31.137 24.863C98.656 180.13 88 192.816 88 208c0 17.648 14.352 32 32 32h40v152c0 4.418 3.586 8 8 8h92.762a111.71 111.71 0 0 0 9.496 22.434l-11.914 11.91a7.99 7.99 0 0 0 0 11.312l32 32a7.99 7.99 0 0 0 11.312 0l11.91-11.914A111.04 111.04 0 0 0 336 475.238V488c0 4.418 3.586 8 8 8h48a8 8 0 0 0 8-8v-12.75a110.708 110.708 0 0 0 22.465-9.473l11.879 11.88a7.99 7.99 0 0 0 11.312 0l32-32a7.99 7.99 0 0 0 0-11.313l-11.879-11.88A110.708 110.708 0 0 0 475.25 400H488a8 8 0 0 0 8-8v-48c0-4.414-3.582-8-8-8h-12.762a111.696 111.696 0 0 0-9.492-22.434l11.91-11.91a7.99 7.99 0 0 0 0-11.312l-32-32a7.99 7.99 0 0 0-11.312 0l-11.91 11.914c-7.153-4-14.657-7.168-22.434-9.496V176zM258.344 301.656l11.879 11.88a110.916 110.916 0 0 0-9.47 22.464H208v-80h40c22.055 0 40-17.945 40-40 0-13.129-6.45-24.703-16.246-32H272c0-2.734-.281-5.414-.809-8H336v84.754a110.916 110.916 0 0 0-22.465 9.469l-11.879-11.88a7.99 7.99 0 0 0-11.312 0l-32 32a7.99 7.99 0 0 0 0 11.313zM390.16 274.68c10.313 2.441 20.145 6.61 29.23 12.382a8.012 8.012 0 0 0 9.954-1.093L440 275.313 460.688 296l-10.665 10.664c-2.656 2.649-3.101 6.785-1.093 9.953 5.773 9.086 9.941 18.926 12.382 29.23a8.004 8.004 0 0 0 7.786 6.16H480v32h-10.895a7.996 7.996 0 0 0-7.785 6.161 95.242 95.242 0 0 1-12.351 29.266 8 8 0 0 0 1.086 9.949L460.687 440 440 460.687l-10.633-10.632a7.975 7.975 0 0 0-9.949-1.086 95.161 95.161 0 0 1-29.266 12.351 8.004 8.004 0 0 0-6.16 7.785V480h-32v-10.895a7.996 7.996 0 0 0-6.16-7.785c-10.312-2.441-20.145-6.61-29.23-12.383a7.992 7.992 0 0 0-9.954 1.094L296 460.687 275.312 440l10.665-10.664a7.996 7.996 0 0 0 1.093-9.953c-5.773-9.086-9.941-18.926-12.383-29.23a8.004 8.004 0 0 0-7.785-6.16H176V232c0-4.414-3.582-8-8-8h-48c-8.824 0-16-7.176-16-16s7.176-16 16-16 16 7.176 16 16h16c0-14.36-9.574-26.398-22.625-30.441 2.48-5.614 8.098-9.559 14.625-9.559 8.824 0 16 7.176 16 16h16c0-11.656-6.328-21.77-15.664-27.36C161.992 145 171.922 136 184 136c10.832 0 19.902 7.258 22.879 17.129-9 7.344-14.879 18.375-14.879 30.871 0 22.055 17.945 40 40 40v-16c-13.23 0-24-10.77-24-24s10.77-24 24-24c10.664 0 19.625 7.04 22.734 16.68-2.199-.375-4.43-.68-6.734-.68h-8v16h8c13.23 0 24 10.77 24 24s-10.77 24-24 24h-48c-4.414 0-8 3.586-8 8v96c0 4.418 3.586 8 8 8h66.895a7.996 7.996 0 0 0 7.785-6.16 95.282 95.282 0 0 1 12.351-29.266 7.995 7.995 0 0 0-1.086-9.949L275.313 296 296 275.312l10.633 10.633a7.992 7.992 0 0 0 9.953 1.086 95.18 95.18 0 0 1 29.262-12.351 8.004 8.004 0 0 0 6.16-7.785V168c0-4.414-3.582-8-8-8h-80.215a40.238 40.238 0 0 0-7.793-7.793V16h86.055c4.273 0 8.297 1.664 11.32 4.687L360 27.312V160h16V27.312l6.625-6.625A15.895 15.895 0 0 1 393.945 16H480v144h-88c-4.414 0-8 3.586-8 8v98.895a7.996 7.996 0 0 0 6.16 7.785zm0 0" fill="#000000" opacity="1" data-original="#000000" class=""></path><path d="M288 368c0 44.113 35.887 80 80 80s80-35.887 80-80-35.887-80-80-80-80 35.887-80 80zm144 0c0 35.29-28.71 64-64 64s-64-28.71-64-64 28.71-64 64-64 64 28.71 64 64zm0 0" fill="#000080" opacity="1" data-original="#000000" class=""></path><path d="M320 368c0 26.473 21.527 48 48 48s48-21.527 48-48-21.527-48-48-48-48 21.527-48 48zm80 0c0 17.648-14.352 32-32 32s-32-14.352-32-32 14.352-32 32-32 32 14.352 32 32zM272 32h48v16h-48zM272 64h48v16h-48zM272 96h72v16h-72zM272 128h72v16h-72zM392 32h72v16h-72zM392 64h72v16h-72zM416 96h48v16h-48zM416 128h48v16h-48zm0 0" fill="#000080" opacity="1" data-original="#000000" class=""></path></g></svg>