<svg xmlns="http://www.w3.org/2000/svg" version="1.1" xmlns:xlink="http://www.w3.org/1999/xlink" width="512" height="512" x="0" y="0" viewBox="0 0 64 64" style="enable-background:new 0 0 512 512" xml:space="preserve"><g><path d="M11.843 45.384a7.666 7.666 0 0 0-.704 3.224c0 4.233 3.444 7.678 7.678 7.678.266 0 .533-.015.801-.044.466 3.251 3.27 5.758 6.647 5.758A6.733 6.733 0 0 0 32 58.788 6.735 6.735 0 0 0 37.735 62a6.725 6.725 0 0 0 6.647-5.758c4.541.499 8.479-3.135 8.479-7.634 0-1.127-.24-2.218-.704-3.224 4.673-.656 8.28-4.681 8.28-9.531a9.664 9.664 0 0 0-3.791-7.643 9.484 9.484 0 0 0 1.779-5.562 9.655 9.655 0 0 0-6.166-8.981l.002-.137c0-4.068-3.31-7.378-7.378-7.378-.915 0-1.809.167-2.646.489A5.674 5.674 0 0 0 36.665 2a5.661 5.661 0 0 0-4.666 2.459A5.664 5.664 0 0 0 27.333 2a5.674 5.674 0 0 0-5.572 4.641 7.353 7.353 0 0 0-2.646-.489c-4.068 0-7.378 3.31-7.378 7.378 0 .045 0 .091.002.137a9.655 9.655 0 0 0-6.166 8.981c0 2.025.625 3.962 1.779 5.562a9.662 9.662 0 0 0-3.791 7.643c0 4.851 3.607 8.875 8.28 9.531zM36.666 4a3.67 3.67 0 0 1 3.665 3.666c0 .174-.02.331-.037.488a1.002 1.002 0 0 0 1.56.936 5.329 5.329 0 0 1 3.029-.938 5.384 5.384 0 0 1 5.378 5.378c0 .222-.018.444-.052.666-.107.491-.994 3.846-4.956 3.056a1 1 0 0 0-.393 1.961 8.078 8.078 0 0 0 1.575.164c1.192 0 2.254-.308 3.17-.921 1.197-.801 1.855-1.947 2.209-2.793 2.751 1.184 4.611 3.922 4.611 6.984a7.457 7.457 0 0 1-1.979 5.098c-.015.016-.018.038-.031.054-.016.02-.04.03-.055.052-.021.031-2.244 3.111-6.794 2.824-1.931-.122-3.553-.997-4.821-2.601a.999.999 0 1 0-1.568 1.24c1.611 2.039 3.777 3.199 6.263 3.356.251.016.495.023.734.023 3.755 0 6.119-1.864 7.176-2.945 1.918 1.428 3.087 3.694 3.087 6.103 0 4.196-3.407 7.61-7.599 7.624-.801-.678-3.077-2.211-6.923-1.798a1 1 0 0 0 .213 1.989c3.59-.385 5.332 1.236 5.534 1.439a5.72 5.72 0 0 1 1.199 3.502c0 3.613-3.444 6.479-7.151 5.477a1.002 1.002 0 0 0-1.26.966v.235c0 2.6-2.115 4.714-4.715 4.714S33 57.884 33 55.285V7.666A3.67 3.67 0 0 1 36.666 4zM8.65 29.75c1.058 1.081 3.422 2.945 7.176 2.945.239 0 .483-.008.734-.023 2.485-.157 4.651-1.317 6.263-3.356a.999.999 0 1 0-1.568-1.24c-1.269 1.604-2.891 2.479-4.821 2.601-4.515.288-6.7-2.694-6.797-2.828-.014-.02-.036-.03-.052-.049-.013-.016-.017-.038-.031-.053a7.457 7.457 0 0 1-1.979-5.098c0-3.061 1.86-5.8 4.611-6.984.353.846 1.011 1.991 2.209 2.793.916.613 1.978.921 3.17.921.502 0 1.027-.055 1.575-.164a1 1 0 1 0-.393-1.961c-3.958.788-4.848-2.558-4.956-3.055a4.42 4.42 0 0 1-.052-.668 5.384 5.384 0 0 1 5.378-5.378c1.089 0 2.137.324 3.029.938a.999.999 0 0 0 1.56-.936c-.018-.157-.037-.313-.037-.488 0-2.021 1.645-3.666 3.665-3.666S31 5.646 31 7.667v47.619c0 2.6-2.124 4.714-4.735 4.714s-4.715-2.115-4.715-4.714v-.235a1.002 1.002 0 0 0-1.26-.966c-3.708 1.002-7.151-1.864-7.151-5.477 0-1.271.417-2.481 1.199-3.503.2-.202 1.939-1.822 5.534-1.438a1 1 0 0 0 .213-1.989c-3.846-.417-6.123 1.119-6.924 1.797-4.192-.014-7.599-3.428-7.599-7.624 0-2.409 1.169-4.675 3.087-6.103z" fill="#000000" opacity="1" data-original="#000000"></path></g></svg>