<svg xmlns="http://www.w3.org/2000/svg" version="1.1" xmlns:xlink="http://www.w3.org/1999/xlink" width="512" height="512" x="0" y="0" viewBox="0 0 100 100" style="enable-background:new 0 0 512 512" xml:space="preserve" class=""><g><path d="M26.13 10.69C13.65 10.69 3.5 20.84 3.5 33.32s10.15 22.63 22.63 22.63S48.76 45.8 48.76 33.32c0-.83-.67-1.5-1.5-1.5H27.63V12.19c0-.83-.67-1.5-1.5-1.5zM45.7 34.82c-.77 10.13-9.25 18.13-19.57 18.13-10.82 0-19.63-8.81-19.63-19.63 0-10.32 8-18.8 18.13-19.57v19.57c0 .83.67 1.5 1.5 1.5z" fill="#000000" opacity="1" data-original="#000000"></path><path d="M32.23 4.59c-.83 0-1.5.67-1.5 1.5v21.13c0 .83.67 1.5 1.5 1.5h21.13c.83 0 1.5-.67 1.5-1.5 0-12.48-10.15-22.63-22.63-22.63zm1.5 21.13V7.65c9.63.73 17.34 8.44 18.07 18.07z" fill="#000000" opacity="1" data-original="#000000"></path><path d="M37.7 10.46c-.46-.15-.96-.07-1.35.21s-.62.73-.62 1.21v10.34c0 .83.67 1.5 1.5 1.5h10.34c.48 0 .93-.23 1.21-.62s.36-.89.21-1.35A17.69 17.69 0 0 0 37.7 10.46zm1.03 10.26v-6.6c2.85 1.42 5.18 3.75 6.6 6.6zM10.93 72.93c-.83 0-1.5.67-1.5 1.5v19.48c0 .83.67 1.5 1.5 1.5H22c.83 0 1.5-.67 1.5-1.5V74.43c0-.83-.67-1.5-1.5-1.5zm9.57 19.48h-8.07V75.93h8.07zM29.18 67.8c-.83 0-1.5.67-1.5 1.5v24.61c0 .83.67 1.5 1.5 1.5h11.07c.83 0 1.5-.67 1.5-1.5V69.3c0-.83-.67-1.5-1.5-1.5zm9.57 24.61h-8.07V70.8h8.07zM45.93 59.87v34.04c0 .83.67 1.5 1.5 1.5H58.5c.83 0 1.5-.67 1.5-1.5V59.87c0-.83-.67-1.5-1.5-1.5H47.43c-.83 0-1.5.67-1.5 1.5zm3 1.5H57v31.04h-8.07zM76.75 95.41c.83 0 1.5-.67 1.5-1.5V51.67c0-.83-.67-1.5-1.5-1.5H65.68c-.83 0-1.5.67-1.5 1.5v42.24c0 .83.67 1.5 1.5 1.5zm-9.57-42.24h8.07v39.24h-8.07zM95 40.74H83.93c-.83 0-1.5.67-1.5 1.5v51.67c0 .83.67 1.5 1.5 1.5H95c.83 0 1.5-.67 1.5-1.5V42.24c0-.83-.67-1.5-1.5-1.5zm-1.5 51.67h-8.07V43.74h8.07z" fill="#000000" opacity="1" data-original="#000000"></path></g></svg>