<svg xmlns="http://www.w3.org/2000/svg" version="1.1" xmlns:xlink="http://www.w3.org/1999/xlink" width="512" height="512" x="0" y="0" viewBox="0 0 64 64" style="enable-background:new 0 0 512 512" xml:space="preserve" class="hovered-paths"><g><path d="M61 1H3c-1.103 0-2 .897-2 2v3c0 1.103.897 2 2 2h2v38H3c-1.103 0-2 .897-2 2v3c0 1.103.897 2 2 2h28v4.184A2.996 2.996 0 0 0 29 60c0 1.654 1.346 3 3 3s3-1.346 3-3a2.996 2.996 0 0 0-2-2.816V53h28c1.103 0 2-.897 2-2v-3c0-1.103-.897-2-2-2h-2V8h2c1.103 0 2-.897 2-2V3c0-1.103-.897-2-2-2zM32 61a1.001 1.001 0 0 1 0-2 1.001 1.001 0 0 1 0 2zm29.001-10H3v-3h58zM57 46H7V8h50zM3 6V3h58l.001 3z" fill="#000000" opacity="1" data-original="#000000" class="hovered-path"></path><path d="M20 41c6.617 0 12-5.383 12-12a1 1 0 0 0-1-1H21V18a1 1 0 0 0-1-1c-6.617 0-12 5.383-12 12s5.383 12 12 12zm-1-21.95V29a1 1 0 0 0 1 1h9.95c-.503 5.046-4.773 9-9.95 9-5.514 0-10-4.486-10-10 0-5.176 3.954-9.447 9-9.95z" fill="#000080" opacity="1" data-original="#000000" class="hovered-path"></path><path d="M23 27h11a1 1 0 0 0 1-1c0-6.617-5.383-12-12-12a1 1 0 0 0-1 1v11a1 1 0 0 0 1 1zm1-10.95c4.717.47 8.479 4.233 8.95 8.95H24zM35 39a1 1 0 0 0 1 1h4a1 1 0 0 0 1-1v-4a1 1 0 0 0-1-1h-4a1 1 0 0 0-1 1zm2-3h2v2h-2zM47 29h-4a1 1 0 0 0-1 1v9a1 1 0 0 0 1 1h4a1 1 0 0 0 1-1v-9a1 1 0 0 0-1-1zm-1 9h-2v-7h2zM54 23h-4a1 1 0 0 0-1 1v15a1 1 0 0 0 1 1h4a1 1 0 0 0 1-1V24a1 1 0 0 0-1-1zm-1 15h-2V25h2zM36 10h5v2h-5zM43 10h12v2H43zM36 14h8v2h-8zM46 14h9v2h-9zM36 18h14v2H36zM52 18h3v2h-3z" fill="#000080" opacity="1" data-original="#000000" class="hovered-path"></path></g></svg>