<svg xmlns="http://www.w3.org/2000/svg" version="1.1" xmlns:xlink="http://www.w3.org/1999/xlink" width="512" height="512" x="0" y="0" viewBox="0 0 100 100" style="enable-background:new 0 0 512 512" xml:space="preserve" class="hovered-paths"><g><path d="M91.14 10.91H8.86c-2.95 0-5.36 2.4-5.36 5.36V82.9c0 3.41 2.78 6.19 6.19 6.19h80.62c3.41 0 6.19-2.78 6.19-6.19V16.27c0-2.96-2.4-5.36-5.36-5.36zM6.5 16.27c0-1.3 1.06-2.36 2.36-2.36h82.29c1.3 0 2.36 1.06 2.36 2.36v11.58h-87V16.27zm87 66.63c0 1.76-1.43 3.19-3.19 3.19H9.69c-1.76 0-3.19-1.43-3.19-3.19V30.85h87z" fill="#000000" opacity="1" data-original="#000000" class="hovered-path"></path><path d="M18.01 64.89h26.47c2.37 0 4.3-1.93 4.3-4.3v-17.7c0-2.37-1.93-4.3-4.3-4.3H18.01c-2.37 0-4.3 1.93-4.3 4.3v17.7c0 2.37 1.93 4.3 4.3 4.3zm-1.3-22c0-.72.58-1.3 1.3-1.3h26.47c.72 0 1.3.58 1.3 1.3v17.7c0 .72-.58 1.3-1.3 1.3H18.01c-.72 0-1.3-.58-1.3-1.3zM57.11 41.59h27.68c.83 0 1.5-.67 1.5-1.5s-.67-1.5-1.5-1.5H57.11c-.83 0-1.5.67-1.5 1.5s.67 1.5 1.5 1.5zM57.11 53.24h27.68c.83 0 1.5-.67 1.5-1.5s-.67-1.5-1.5-1.5H57.11c-.83 0-1.5.67-1.5 1.5s.67 1.5 1.5 1.5zM17.5 19.38h-.01c-.83 0-1.49.67-1.49 1.5s.68 1.5 1.5 1.5 1.5-.67 1.5-1.5-.67-1.5-1.5-1.5zM31.26 19.38h-.01c-.83 0-1.49.67-1.49 1.5s.68 1.5 1.5 1.5 1.5-.67 1.5-1.5-.67-1.5-1.5-1.5zM45.03 19.38h-.01c-.83 0-1.49.67-1.49 1.5s.68 1.5 1.5 1.5 1.5-.67 1.5-1.5-.67-1.5-1.5-1.5zM71.62 73.12H28.38c-.83 0-1.5.67-1.5 1.5s.67 1.5 1.5 1.5h43.25c.83 0 1.5-.67 1.5-1.5s-.68-1.5-1.51-1.5z" fill="#000000" opacity="1" data-original="#000000" class="hovered-path"></path></g></svg>