<svg xmlns="http://www.w3.org/2000/svg" version="1.1" xmlns:xlink="http://www.w3.org/1999/xlink" width="512" height="512" x="0" y="0" viewBox="0 0 64 64" style="enable-background:new 0 0 512 512" xml:space="preserve" class="hovered-paths"><g transform="matrix(1,0,0,1,1.0658141036401503e-14,0)"><path d="M61 43.549h-2.208a11.174 11.174 0 0 0-.751-1.817l1.56-1.56a.999.999 0 0 0 0-1.414L56.243 35.4a.997.997 0 0 0-1.415.001l-1.553 1.559c-.078-.041-.155-.071-.232-.109V7.979a4.83 4.83 0 0 0-4.823-4.824H6.674A4.83 4.83 0 0 0 1.85 7.979v36.748a4.83 4.83 0 0 0 4.824 4.824h27.534a.986.986 0 0 0 .948.745h2.208c.196.627.447 1.236.752 1.823l-1.56 1.553a1 1 0 0 0-.001 1.416l3.358 3.358a1.03 1.03 0 0 0 1.414 0l1.56-1.56a11.28 11.28 0 0 0 1.817.751v2.208a1 1 0 0 0 1 1h4.746a1 1 0 0 0 1-1v-2.208a11.237 11.237 0 0 0 1.822-.752l1.553 1.559a1 1 0 0 0 1.415.001l3.358-3.358a1 1 0 0 0-.001-1.416l-1.56-1.553c.305-.587.557-1.197.753-1.823h2.207a1 1 0 0 0 1-1v-4.746a1 1 0 0 0-1-1zM6.674 5.156h41.544a2.827 2.827 0 0 1 2.823 2.824v5.176H3.85V7.979a2.827 2.827 0 0 1 2.824-2.824zM3.85 44.727V15.156h47.191v18.037c-.041-.03-.09-.047-.135-.07-.033-.017-.062-.037-.097-.05a.988.988 0 0 0-.357-.072h-4.746a1 1 0 0 0-1 1v2.208a11.28 11.28 0 0 0-1.817.751l-1.56-1.56a.997.997 0 0 0-1.414 0l-3.358 3.358a.999.999 0 0 0 0 1.414l1.56 1.56a11.097 11.097 0 0 0-.75 1.817h-2.209a1 1 0 0 0-1 1v3.001H6.674a2.827 2.827 0 0 1-2.824-2.824zM60 48.295h-1.97c-.464 0-.867.319-.974.771a9.278 9.278 0 0 1-1.114 2.703 1 1 0 0 0 .147 1.229l1.388 1.382-1.941 1.941-1.382-1.388a.999.999 0 0 0-1.23-.147 9.245 9.245 0 0 1-2.703 1.115 1 1 0 0 0-.77.973v1.969h-2.746v-1.969a1 1 0 0 0-.769-.973 9.159 9.159 0 0 1-2.692-1.114.997.997 0 0 0-1.232.144l-1.391 1.391-1.942-1.943 1.388-1.382a.999.999 0 0 0 .147-1.229 9.233 9.233 0 0 1-1.114-2.704 1.001 1.001 0 0 0-.974-.77h-1.97v-2.746h1.97c.463 0 .865-.318.973-.768a9.223 9.223 0 0 1 1.113-2.693.998.998 0 0 0-.145-1.231l-1.391-1.391 1.944-1.944 1.391 1.391c.326.328.838.386 1.232.144a9.159 9.159 0 0 1 2.692-1.114 1 1 0 0 0 .769-.973V35h2.746v1.969a1.001 1.001 0 0 0 .775.975c.469.108.95.265 1.433.466.409.169.824.382 1.269.651.393.238.9.176 1.227-.15l1.382-1.388 1.943 1.943-1.391 1.391a1 1 0 0 0-.145 1.231 9.15 9.15 0 0 1 1.113 2.692 1 1 0 0 0 .973.769h1.97v2.746z" fill="#000000" opacity="1" data-original="#000000" class="hovered-path"></path><path d="M48.079 40.562c-3.508 0-6.361 2.854-6.361 6.361s2.854 6.361 6.361 6.361 6.36-2.854 6.36-6.361-2.854-6.361-6.36-6.361zm0 10.722c-2.405 0-4.361-1.957-4.361-4.361s1.956-4.361 4.361-4.361 4.36 1.956 4.36 4.361-1.956 4.361-4.36 4.361zM17.395 24.742a.999.999 0 0 0-1.414 0l-6.674 6.674a.999.999 0 0 0 0 1.414l6.674 6.674a.997.997 0 0 0 1.414 0 .999.999 0 0 0 0-1.414l-5.967-5.967 5.967-5.967a.999.999 0 0 0 0-1.414zM29.146 37.797h-6.513a1 1 0 1 0 0 2h6.513a1 1 0 1 0 0-2z" fill="#000000" opacity="1" data-original="#000000" class="hovered-path"></path></g></svg>