<svg xmlns="http://www.w3.org/2000/svg" version="1.1" xmlns:xlink="http://www.w3.org/1999/xlink" width="512" height="512" x="0" y="0" viewBox="0 0 64 64" style="enable-background:new 0 0 512 512" xml:space="preserve" class=""><g><path d="M47 20c0-3.9-7.729-6-15-6s-15 2.1-15 6v9h-7v-6.586l1.293 1.293 1.414-1.414-3-3a1 1 0 0 0-1.414 0l-3 3 1.414 1.414L8 22.414V30a1 1 0 0 0 1 1h8v2H9a1 1 0 0 0-1 1v7.586l-1.293-1.293-1.414 1.414 3 3a1 1 0 0 0 1.414 0l3-3-1.414-1.414L10 41.586V35h7v9c0 3.9 7.729 6 15 6s15-2.1 15-6v-9h7v6.586l-1.293-1.293-1.414 1.414 3 3a1 1 0 0 0 1.414 0l3-3-1.414-1.414L56 41.586V34a1 1 0 0 0-1-1h-8v-2h8a1 1 0 0 0 1-1v-7.586l1.293 1.293 1.414-1.414-3-3a1 1 0 0 0-1.414 0l-3 3 1.414 1.414L54 22.414V29h-7Zm-15-4c7.936 0 13 2.369 13 4s-5.064 4-13 4-13-2.369-13-4 5.064-4 13-4Zm0 32c-7.936 0-13-2.369-13-4v-.893C21.767 45 26.991 46 32 46v-2c-7.936 0-13-2.369-13-4v-.893C21.767 41 26.991 42 32 42s10.233-1 13-2.893V44c0 1.631-5.064 4-13 4Zm0-8c-7.936 0-13-2.369-13-4v-.893C21.767 37 26.991 38 32 38v-2c-7.936 0-13-2.369-13-4v-.893C21.767 33 26.991 34 32 34s10.233-1 13-2.893V36c0 1.631-5.064 4-13 4Zm0-8c-7.936 0-13-2.369-13-4v-.893C21.767 29 26.991 30 32 30v-2c-7.936 0-13-2.369-13-4v-.893C21.767 25 26.991 26 32 26s10.233-1 13-2.893V28c0 1.631-5.064 4-13 4Z" fill="#000000" opacity="1" data-original="#000000" class=""></path><path d="M40 19h2v2h-2zM22 19h2v2h-2zM2 15h16a1 1 0 0 0 1-1V4a1 1 0 0 0-1-1H9.414L7.707 1.293A1 1 0 0 0 7 1H2a1 1 0 0 0-1 1v12a1 1 0 0 0 1 1ZM3 3h3.586l1.707 1.707A1 1 0 0 0 9 5h8v8H3ZM62 3h-8.586l-1.707-1.707A1 1 0 0 0 51 1h-5a1 1 0 0 0-1 1v12a1 1 0 0 0 1 1h16a1 1 0 0 0 1-1V4a1 1 0 0 0-1-1Zm-1 10H47V3h3.586l1.707 1.707A1 1 0 0 0 53 5h8ZM19 62V52a1 1 0 0 0-1-1H9.414l-1.707-1.707A1 1 0 0 0 7 49H2a1 1 0 0 0-1 1v12a1 1 0 0 0 1 1h16a1 1 0 0 0 1-1Zm-2-1H3V51h3.586l1.707 1.707A1 1 0 0 0 9 53h8ZM62 51h-8.586l-1.707-1.707A1 1 0 0 0 51 49h-5a1 1 0 0 0-1 1v12a1 1 0 0 0 1 1h16a1 1 0 0 0 1-1V52a1 1 0 0 0-1-1Zm-1 10H47V51h3.586l1.707 1.707A1 1 0 0 0 53 53h8Z" fill="#000080" opacity="1" data-original="#000000" class=""></path></g></svg>